# xmcd CD database file
#
# Track frame offsets:
#	150
#	21008
#	41838
#
# Disc length: 833 seconds
#
# Revision: 0
# Processed by: cddbd v1.5.1PL0 Copyright (c) Steve Scherf et al.
# Submitted via: CDex 1.51
#
DISCID=1d033f03
DTITLE=影山ヒロノブ - One Dream, One Love
DYEAR=1996
DGENRE=JPop
TTITLE0=影山ヒロノブ、堀江美都子/One Dream, One Love
TTITLE1=影山ヒロノブ、ALLONA/One Dream, One Love-English Version-
TTITLE2=One Dream, One Love-Original Karalke-
EXTD=YEAR: 1996
EXTT0=
EXTT1=
EXTT2=
PLAYORDER=
